<svg xmlns="http://www.w3.org/2000/svg" viewBox="0 0 350.3 94.3"><defs><style>.cls-1{fill:none;stroke:#000;stroke-miterlimit:10;stroke-width:4px;}</style></defs><title>Logo-Corto-Negro</title><g id="Layer_2" data-name="Layer 2"><g id="Layer_1-2" data-name="Layer 1"><g id="Layer_4" data-name="Layer 4"><path d="M116,25c5.8,2.6,8.4,6.8,7.7,12.2-.7,6.1-4.2,9.9-10.2,10.8H89.3V3.67h18.6A20.64,20.64,0,0,1,115.7,5c4.2,1.7,5.9,5.2,6.2,9.4s-.7,8.1-5.1,10.1A2.77,2.77,0,0,1,116,25ZM97.9,40.57c4.1,0,8,.2,11.9,0,3.5-.2,5.3-2.3,5.2-5.6s-1.9-5.1-5.4-5.3-7.2-.1-10.8-.1a1.06,1.06,0,0,0-.9.5Zm.1-18.7c4.1-.2,8,.4,11.8-.4,2.4-.5,3.6-2.4,3.6-5.1,0-2.5-1.3-4.4-3.7-4.7-3.8-.6-7.7-.2-11.7-.2Z"/><path d="M163.9,9c-1.5,2-3,4.1-4.5,6.2-1.8-.9-3.3-1.8-5-2.5a18.51,18.51,0,0,0-11.4-1.3c-2.4.6-4,1.9-4,3.8-.1,2.2,1.3,3.4,3.1,4.3,3.4,1.6,7.1,2,10.7,2.8a37.45,37.45,0,0,1,4.5,1.2c6,2.1,8.8,6.1,8.8,12.2s-2.9,10.4-9,12.3c-9.8,2.9-18.7,1-27-5.5,1.4-2.2,2.7-4.2,4.1-6.4a33,33,0,0,0,10.7,4.8,16.23,16.23,0,0,0,9-.3c2-.7,3.4-2,3.5-4.2a4.45,4.45,0,0,0-3-4.5c-3.3-1.5-7-1.9-10.5-2.7a26.8,26.8,0,0,1-8.3-3.1,12.16,12.16,0,0,1-.4-19.8C142.7,1.07,157.4,2.37,163.9,9Z"/><path d="M71.2,3.77h8.6s.2,19,0,27.7c-.2,6.8-3.1,12.2-9.3,15.5-7.8,4.1-18.9,2.4-24.5-3.8a17.67,17.67,0,0,1-4.5-11.9c-.1-8.8,0-27.5,0-27.5h8.6s0,19,.1,27.3c.1,5.4,3,8.9,8.1,10.2A10.14,10.14,0,0,0,71,32.67a35.79,35.79,0,0,0,.2-3.9Z"/><path d="M301.7,3.77h8.6s.2,19,0,27.7c-.2,6.8-3.1,12.2-9.3,15.5-7.8,4.1-18.9,2.4-24.5-3.8a17.67,17.67,0,0,1-4.5-11.9c-.1-8.8,0-27.5,0-27.5h8.6s0,19,.1,27.3c.1,5.4,3,8.9,8.1,10.2a10.14,10.14,0,0,0,12.7-8.6,35.79,35.79,0,0,0,.2-3.9Z"/><path d="M214,15c-2.5,1-5.1,2-7.5,3-7.7-8.3-16-9.3-22.4-2.8a15.4,15.4,0,0,0,.4,22.2c6.5,6,15.2,4.8,22-3.2l7.5,3c-1.7,7.1-12.5,12.9-22,11.8-12.1-1.3-20.6-10.5-20.9-22.5a22.82,22.82,0,0,1,19.5-23.4C201.7,1.67,211.2,7.57,214,15Z"/><polygon points="337.7 48.17 329.1 48.17 329.1 11.37 316.3 11.37 316.3 3.77 350.3 3.77 350.3 11.37 337.7 11.37 337.7 48.17"/><polygon points="21.4 48.17 12.8 48.17 12.8 11.37 0 11.37 0 3.77 34 3.77 34 11.37 21.4 11.37 21.4 48.17"/><path class="cls-1" d="M235.1,31.57a24.13,24.13,0,0,1,4.9,19.2,24.28,24.28,0,0,0,16.7-5.2l-15.1-19.1Z"/><path class="cls-1" d="M235.1,31.57l-12.7,10a24.41,24.41,0,0,0,17.6,9.2A24.13,24.13,0,0,0,235.1,31.57Z"/><path class="cls-1" d="M217.6,22.37a24.41,24.41,0,0,1,17.6,9.2l6.5-5.1L226.6,7.37A23.78,23.78,0,0,0,217.6,22.37Z"/><path class="cls-1" d="M217.6,22.37a24.13,24.13,0,0,0,4.9,19.2l12.7-10A24.59,24.59,0,0,0,217.6,22.37Z"/><path class="cls-1" d="M248.8,20.77l-7.2,5.7,15.1,19.1a24,24,0,0,0,9-15.7A24.49,24.49,0,0,1,248.8,20.77Z"/><path class="cls-1" d="M265.7,29.87a24.17,24.17,0,0,0-5-18.5l-11.9,9.4A24.49,24.49,0,0,0,265.7,29.87Z"/><path class="cls-1" d="M243.8,2.17a24.1,24.1,0,0,0-17.3,5.1l15.1,19.1,7.2-5.7A24.17,24.17,0,0,1,243.8,2.17Z"/><path class="cls-1" d="M243.8,2.17a24.17,24.17,0,0,0,5,18.5l11.9-9.4A24.49,24.49,0,0,0,243.8,2.17Z"/><polyline points="258.6 44.37 265.8 52.57 270.5 52.67 288.8 74.77 288.7 81.97 284.5 84.67 277.5 83.17 259.9 60.57 260.9 55.87 254.4 47.07"/><path d="M18.5,62.87c-1,.9-2,1.8-3.1,2.7a23.92,23.92,0,0,0-2.1-1.3,5.87,5.87,0,0,0-5.3-.5A3.53,3.53,0,0,0,6.2,66a2.86,2.86,0,0,0,1.4,2.2,21.67,21.67,0,0,0,3.8,1.6c1.4.6,2.8,1.1,4.1,1.8,4.9,2.7,5,8.9.2,11.9S3.2,84.87,0,80.37c1-.9,2.1-1.8,3.2-2.8A20.35,20.35,0,0,0,5,79.07a7.61,7.61,0,0,0,7.4,1.2c2.4-.9,2.7-3.3.6-4.7a17.64,17.64,0,0,0-3.7-1.7,37.77,37.77,0,0,1-5-2.2c-4.3-2.6-4-8.4.4-10.9C8.9,58.37,15.4,59.27,18.5,62.87Z"/><path d="M75.6,67.17h4.6v17.2H76.7c-.2-.6-.5-1.3-.8-2.1a10.59,10.59,0,0,1-1.2,1,7,7,0,0,1-7.3,1.2c-2.5-1-3.3-3.2-3.4-5.7-.1-3.8,0-11.5,0-11.5h4.7v1.9s0,5.7.1,8.5c.1,1.8,1.2,2.6,3,2.4a4.39,4.39,0,0,0,3.8-4.2Z"/><path d="M125.5,84.47h-4.7V73a2.37,2.37,0,0,0-2.3-1.9c-2-.3-4.7,2-4.7,4v9.4h-4.6V67.27h3.5c.3.7.5,1.3.9,2.1.7-.5,1.3-1,2-1.5,4.2-2.8,9.2-.5,9.8,4.4.1.8.1,2.4.1,2.4Z"/><path d="M167.7,84.37V64.27h-7.4v-4.2h19.6v4.1h-7.4v20.1C170.8,84.37,169.3,84.37,167.7,84.37Z"/><path d="M39.2,70.27c-1.1.7-2.1,1.4-3,2-3.5-2.2-6.2-2.2-8-.2a6.3,6.3,0,0,0,0,7.4c1.8,2,4.8,1.9,7.9-.3l3,2.1c-1.7,3-6,4.4-10.1,3.4s-6.4-4-6.6-8.5c-.2-4.3,2-7.9,5.8-9.1C32.3,65.77,36.9,67,39.2,70.27Z"/><path d="M86.2,71H83.7V67h2.5v-5.2h4.6V67h4.4v4H90.9s-.1,5.4.1,8c.1,1.5,1.3,2.2,2.8,2.2.7,0,1.4-.2,2.3-.3v3.3c-4.6,2.3-9.1.1-9.8-4.9a44.22,44.22,0,0,1-.2-6.3A18.15,18.15,0,0,0,86.2,71Z"/><path d="M224.8,58.07h4.6v20.1c0,1.7.4,2.1.7,2.3a2,2,0,0,0,1.8.2c.2,1.1.4,2.2.6,3.2-4.3,2.3-7.7.4-7.7-4.3C224.7,72.87,224.8,58.07,224.8,58.07Z"/><path d="M99.6,67.17H104v17.2H99.6Z"/><path d="M51,66.67c5.4,0,9.3,3.7,9.3,9,0,5.6-3.7,9.4-9.3,9.4s-9.4-3.7-9.4-9.3C41.8,70.27,45.5,66.67,51,66.67Zm4.6,9.2c0-3.1-1.9-5.2-4.6-5.1s-4.5,2.1-4.5,5.1,1.8,5.2,4.6,5.1S55.6,78.87,55.6,75.87Z"/><path d="M129.7,90c1.1-.9,2.1-1.6,3.2-2.4,2,1.7,5.3,3.2,7.6,1.7s1.9-5.2,1.8-6.8a8,8,0,0,1-9.4.6c-3.2-1.9-4-5.1-3.7-8.6.6-5.9,5.5-9.2,10.7-7.2a20.73,20.73,0,0,1,3.3,2l.7-1.9h3.4V87c0,5.9-5.2,8.1-11.2,7.1A10.85,10.85,0,0,1,129.7,90Zm13.1-14.5a4.36,4.36,0,0,0-4.5-4.7,4.7,4.7,0,0,0,0,9.4A4.36,4.36,0,0,0,142.8,75.47Z"/><path d="M190.3,66.67c5.4,0,9.3,3.8,9.2,9.1,0,5.6-3.8,9.3-9.4,9.3s-9.4-3.8-9.3-9.3S184.7,66.57,190.3,66.67Zm4.5,9.2c0-3.1-1.9-5.2-4.6-5.1s-4.5,2.1-4.5,5.1,1.8,5.2,4.6,5.1C192.9,80.87,194.8,78.87,194.8,75.87Z"/><path d="M211.9,66.67c5.4,0,9.2,3.7,9.3,9,0,5.6-3.8,9.4-9.4,9.4s-9.3-3.8-9.3-9.2S206.3,66.57,211.9,66.67Zm-4.6,9.1c0,3.1,1.8,5.2,4.6,5.2s4.5-2.1,4.5-5.1-1.9-5.2-4.6-5.2S207.4,72.77,207.3,75.77Z"/></g></g></g></svg>