<svg xmlns="http://www.w3.org/2000/svg" viewBox="0 0 449.35 90.59"><defs><style>.cls-1{fill:none;stroke:#fff;stroke-miterlimit:10;stroke-width:4.1px;}.cls-2{fill:#fff;}</style></defs><title>Logo-Completo-blanco</title><g id="Layer_2" data-name="Layer 2"><g id="Layer_1-2" data-name="Layer 1"><g id="Layer_1-3" data-name="Layer 1"><path class="cls-1" d="M28.35,41.75a39.87,39.87,0,0,1-13.1,29.5,39.54,39.54,0,0,0,26.5,10.2V41.75Z"/><path class="cls-1" d="M28.35,41.75H2.05a39.87,39.87,0,0,0,13.1,29.5A39.6,39.6,0,0,0,28.35,41.75Z"/><path class="cls-1" d="M15.15,12.25a39.51,39.51,0,0,1,13.1,29.5h13.4V2.05A39.93,39.93,0,0,0,15.15,12.25Z"/><path class="cls-1" d="M15.15,12.25a39.51,39.51,0,0,0-13.1,29.5h26.3A39.6,39.6,0,0,0,15.15,12.25Z"/><path class="cls-1" d="M56.75,41.75h-15v39.7a39.7,39.7,0,0,0,27.3-10.9A39.78,39.78,0,0,1,56.75,41.75Z"/><path class="cls-1" d="M69.05,70.45a39.39,39.39,0,0,0,12.3-28.7H56.65A39.86,39.86,0,0,0,69.05,70.45Z"/><path class="cls-1" d="M69.05,13.05a39.25,39.25,0,0,0-27.3-10.9v39.7h15A39.45,39.45,0,0,1,69.05,13.05Z"/><path class="cls-1" d="M69.05,13.05a39.39,39.39,0,0,0-12.3,28.7h24.7A39.86,39.86,0,0,0,69.05,13.05Z"/><polyline class="cls-2" points="355.25 39.55 362.85 46.75 367.35 46.45 386.75 66.15 387.25 72.95 383.55 75.95 376.75 75.15 357.85 54.95 358.35 50.35 351.45 42.45"/><path class="cls-2" d="M215.05,24.45c5.8,2.6,8.4,6.8,7.7,12.2-.7,6.1-4.2,9.9-10.2,10.8h-24.2V3.05H207a20.64,20.64,0,0,1,7.8,1.3c4.2,1.7,5.9,5.2,6.2,9.4s-.7,8.1-5.1,10.1A8.11,8.11,0,0,1,215.05,24.45Zm-18,15.6c4.1,0,8,.2,11.9,0,3.5-.2,5.3-2.3,5.2-5.6s-1.9-5.1-5.4-5.3-7.2-.1-10.8-.1a1.06,1.06,0,0,0-.9.5Zm0-18.8c4.1-.2,8,.4,11.8-.4,2.4-.5,3.6-2.4,3.6-5.1,0-2.5-1.3-4.4-3.7-4.7-3.8-.6-7.7-.2-11.7-.2Z"/><path class="cls-2" d="M363.75,25.55c0,13.4-9.8,23.2-23.2,23.1s-23.2-9.9-23.1-23.4c.1-13.2,9.8-23,23.1-23C354.05,2.25,363.85,12.05,363.75,25.55Zm-23.2,15.1c7.9,0,14.5-6.8,14.6-15s-6.5-15.2-14.4-15.2-14.8,6.9-14.7,15.1S332.65,40.55,340.55,40.65Z"/><path class="cls-2" d="M263.05,8.35c-1.5,2-3,4.1-4.5,6.2-1.8-.9-3.3-1.8-5-2.5a18.51,18.51,0,0,0-11.4-1.3c-2.4.6-4,1.9-4,3.8-.1,2.2,1.3,3.4,3.1,4.3,3.4,1.6,7.1,2,10.7,2.8a37.45,37.45,0,0,1,4.5,1.2c6,2.1,8.8,6.1,8.8,12.2s-2.9,10.4-9,12.3c-9.8,2.9-18.7,1-27-5.5,1.4-2.2,2.7-4.2,4.1-6.4a33,33,0,0,0,10.7,4.8,16.23,16.23,0,0,0,9-.3c2-.7,3.4-2,3.5-4.2a4.45,4.45,0,0,0-3-4.5c-3.3-1.5-7-1.9-10.5-2.7a26.8,26.8,0,0,1-8.3-3.1,12.16,12.16,0,0,1-.4-19.8C241.85.45,256.45,1.75,263.05,8.35Z"/><path class="cls-2" d="M170.25,3.15h8.6s.2,19,0,27.7c-.2,6.8-3.1,12.2-9.3,15.5-7.8,4.1-18.9,2.4-24.5-3.8a17.67,17.67,0,0,1-4.5-11.9c-.1-8.8,0-27.5,0-27.5h8.6s0,19,.1,27.3c.1,5.4,3,8.9,8.1,10.2a10.14,10.14,0,0,0,12.7-8.6,35.79,35.79,0,0,0,.2-3.9Z"/><path class="cls-2" d="M400.85,3.15h8.6s.2,19,0,27.7c-.2,6.8-3.1,12.2-9.3,15.5-7.8,4.1-18.9,2.4-24.5-3.8a17.67,17.67,0,0,1-4.5-11.9c-.1-8.8,0-27.5,0-27.5h8.6s0,19,.1,27.3c.1,5.4,3,8.9,8.1,10.2a10.14,10.14,0,0,0,12.7-8.6,35.79,35.79,0,0,0,.2-3.9Z"/><path class="cls-2" d="M313.05,14.35c-2.5,1-5.1,2-7.5,3-7.7-8.3-16-9.3-22.4-2.8a15.4,15.4,0,0,0,.4,22.2c6.5,6,15.2,4.8,22-3.2l7.5,3c-1.7,7.1-12.5,12.9-22,11.8-12.1-1.3-20.6-10.5-20.9-22.5a22.82,22.82,0,0,1,19.5-23.4C300.75,1.05,310.25,7.05,313.05,14.35Z"/><polygon class="cls-2" points="436.85 47.65 428.25 47.65 428.25 10.85 415.45 10.85 415.45 3.25 449.35 3.25 449.35 10.75 436.85 10.75 436.85 47.65"/><polygon class="cls-2" points="120.55 47.65 111.95 47.65 111.95 10.85 99.15 10.85 99.15 3.25 133.05 3.25 133.05 10.75 120.55 10.75 120.55 47.65"/><path class="cls-2" d="M190.45,59.25a2.18,2.18,0,0,1,2.4-2.3,2.49,2.49,0,0,1,2.3,2.7,2.41,2.41,0,0,1-2.6,2.4C191.15,62,190.35,60.85,190.45,59.25Z"/><path class="cls-2" d="M116.15,62.15l-2.8,2.5c-.7-.4-1.3-.8-1.9-1.2a5.45,5.45,0,0,0-4.8-.5,3.34,3.34,0,0,0-1.7,2c-.1.6.7,1.6,1.3,2a18.45,18.45,0,0,0,3.5,1.5c1.2.5,2.5,1,3.7,1.6,4.5,2.5,4.6,8.2.2,10.9s-11.5,1.3-14.4-2.9c1-.8,1.9-1.7,3-2.5A21,21,0,0,0,104,77a7,7,0,0,0,6.8,1.1c2.2-.9,2.5-3.1.5-4.4a21.1,21.1,0,0,0-3.4-1.6,38.18,38.18,0,0,1-4.6-2.1,5.7,5.7,0,0,1,.3-10C107.35,58,113.25,58.85,116.15,62.15Z"/><path class="cls-2" d="M168.75,66.05H173V82h-3.3c-.2-.6-.5-1.2-.8-1.9a10.63,10.63,0,0,0-1.1.9,6.33,6.33,0,0,1-6.7,1.1c-2.3-.9-3-3-3.1-5.2-.1-3.5,0-10.6,0-10.6h4.3v1.8s0,5.2.1,7.9c.1,1.7,1.1,2.4,2.8,2.2a4.07,4.07,0,0,0,3.5-3.9C168.75,71.35,168.75,68.75,168.75,66.05Z"/><path class="cls-2" d="M214.55,82h-4.4V71.35a2.36,2.36,0,0,0-2.1-1.8,4.24,4.24,0,0,0-4.3,3.7v8.6h-4.3V66h3.2c.3.6.5,1.2.8,1.9.7-.5,1.2-1,1.8-1.4,3.9-2.6,8.5-.5,9,4.1.1.7.1,2.2.1,2.2Z"/><path class="cls-2" d="M253.45,82V63.45h-6.8v-3.9h18v3.8h-6.8v18.5C256.25,82,254.85,82,253.45,82Z"/><path class="cls-2" d="M135.15,69c-1,.7-1.9,1.3-2.8,1.9-3.2-2-5.7-2.1-7.4-.2a5.7,5.7,0,0,0,0,6.8c1.6,1.8,4.4,1.8,7.3-.3.9.6,1.8,1.3,2.8,1.9-1.6,2.8-5.5,4.1-9.3,3.2s-5.9-3.7-6.1-7.8a8.09,8.09,0,0,1,5.3-8.4C128.85,64.75,133.05,66,135.15,69Z"/><path class="cls-2" d="M178.45,69.55h-2.3v-3.7h2.3v-4.8h4.2v4.8h4.1v3.7h-3.9s-.1,5,0,7.4a2.18,2.18,0,0,0,2.6,2c.6,0,1.3-.2,2.2-.3v3.1c-4.3,2.1-8.3.1-9-4.5a37.07,37.07,0,0,1-.2-5.8Z"/><path class="cls-2" d="M306,57.65h4.2v18.5c0,1.6.4,1.9.6,2.1a1.79,1.79,0,0,0,1.7.2l.6,3c-3.9,2.1-7.1.3-7.1-3.9Z"/><path class="cls-2" d="M190.85,66.05H195V82h-4.1Z"/><path class="cls-2" d="M146.05,65.55a8.17,8.17,0,0,1,8.6,8.3c0,5.1-3.4,8.6-8.5,8.6s-8.6-3.4-8.6-8.5S141,65.55,146.05,65.55Zm4.2,8.5c0-2.9-1.7-4.8-4.2-4.7s-4.1,1.9-4.1,4.7,1.7,4.8,4.2,4.7S150.25,76.75,150.25,74.05Z"/><path class="cls-2" d="M218.45,87c1-.8,2-1.5,3-2.3,1.9,1.5,4.9,2.9,7,1.6s1.8-4.8,1.6-6.3a7.37,7.37,0,0,1-8.7.5c-3-1.8-3.7-4.7-3.4-7.9.5-5.4,5.1-8.5,9.9-6.7a17.24,17.24,0,0,1,3,1.8l.6-1.8h3.1v18c0,5.4-4.8,7.5-10.3,6.5A7.46,7.46,0,0,1,218.45,87Zm12.1-13.3a4.07,4.07,0,0,0-4.1-4.4,4,4,0,0,0-4.2,4.3,4.1,4.1,0,0,0,4.2,4.4C228.85,78.05,230.55,76.25,230.55,73.65Z"/><path class="cls-2" d="M274.25,65.55a8.5,8.5,0,1,1-8.7,8.4C265.65,68.85,269.05,65.55,274.25,65.55Zm4.1,8.5c0-2.8-1.7-4.8-4.3-4.7s-4.1,1.9-4.1,4.7,1.7,4.8,4.2,4.7A4.35,4.35,0,0,0,278.35,74.05Z"/><path class="cls-2" d="M294.15,65.55c5,0,8.5,3.4,8.5,8.3,0,5.2-3.5,8.7-8.6,8.6a8.08,8.08,0,0,1-8.5-8.5C285.45,69,289,65.55,294.15,65.55Zm-4.3,8.4c0,2.9,1.7,4.8,4.2,4.8s4.2-1.9,4.2-4.7-1.7-4.8-4.2-4.8S290,71.15,289.85,74Z"/></g></g></g></svg>