<svg xmlns="http://www.w3.org/2000/svg" viewBox="0 0 449.35 90.59"><defs><style>.cls-1{fill:none;stroke:#000;stroke-miterlimit:10;stroke-width:4.1px;}</style></defs><title>Logo-Completo-negro</title><g id="Layer_2" data-name="Layer 2"><g id="Layer_1-2" data-name="Layer 1"><g id="Layer_1-3" data-name="Layer 1"><path class="cls-1" d="M28.35,41.65a39.87,39.87,0,0,1-13.1,29.5,39.54,39.54,0,0,0,26.5,10.2V41.65Z"/><path class="cls-1" d="M28.35,41.65H2.05a39.87,39.87,0,0,0,13.1,29.5A39.43,39.43,0,0,0,28.35,41.65Z"/><path class="cls-1" d="M15.15,12.15a39.51,39.51,0,0,1,13.1,29.5h13.4V2.05A39.84,39.84,0,0,0,15.15,12.15Z"/><path class="cls-1" d="M15.15,12.15a39.87,39.87,0,0,0-13.1,29.5h26.3A39.6,39.6,0,0,0,15.15,12.15Z"/><path class="cls-1" d="M56.75,41.65h-15v39.7a39.7,39.7,0,0,0,27.3-10.9A39.78,39.78,0,0,1,56.75,41.65Z"/><path class="cls-1" d="M69.05,70.45a39.39,39.39,0,0,0,12.3-28.7H56.65A40.22,40.22,0,0,0,69.05,70.45Z"/><path class="cls-1" d="M69.05,13a39.25,39.25,0,0,0-27.3-10.9v39.6h15A39.39,39.39,0,0,1,69.05,13Z"/><path class="cls-1" d="M69.05,13a39.39,39.39,0,0,0-12.3,28.7h24.7A39.86,39.86,0,0,0,69.05,13Z"/><polyline points="355.25 39.45 362.85 46.65 367.35 46.35 386.75 66.05 387.25 72.85 383.55 75.85 376.75 75.05 357.85 54.85 358.35 50.25 351.45 42.35"/><path d="M215.05,24.35c5.8,2.6,8.4,6.8,7.7,12.2-.7,6.1-4.2,9.9-10.2,10.8h-24.2V3.05H207a20.64,20.64,0,0,1,7.8,1.3c4.2,1.7,5.9,5.2,6.2,9.4s-.7,8.1-5.1,10.1C215.65,24,215.45,24.15,215.05,24.35Zm-18,15.6c4.1,0,8,.2,11.9,0,3.5-.2,5.3-2.3,5.2-5.6s-1.9-5.1-5.4-5.3-7.2-.1-10.8-.1a1.06,1.06,0,0,0-.9.5Zm0-18.8c4.1-.2,8,.4,11.8-.4,2.4-.5,3.6-2.4,3.6-5.1,0-2.5-1.3-4.4-3.7-4.7-3.8-.6-7.7-.2-11.7-.2Z"/><path d="M363.75,25.45c0,13.4-9.8,23.2-23.2,23.1s-23.2-9.9-23.1-23.4c.1-13.2,9.8-23,23.1-23C354.05,2.15,363.85,12,363.75,25.45Zm-23.2,15.1c7.9,0,14.5-6.8,14.6-15s-6.5-15.2-14.4-15.2-14.8,6.9-14.7,15.1S332.65,40.55,340.55,40.55Z"/><path d="M263.05,8.35c-1.5,2-3,4.1-4.5,6.2-1.8-.9-3.3-1.8-5-2.5a18.51,18.51,0,0,0-11.4-1.3c-2.4.6-4,1.9-4,3.8-.1,2.2,1.3,3.4,3.1,4.3,3.4,1.6,7.1,2,10.7,2.8a37.45,37.45,0,0,1,4.5,1.2c6,2.1,8.8,6.1,8.8,12.2s-2.9,10.4-9,12.3c-9.8,2.9-18.7,1-27-5.5,1.4-2.2,2.7-4.2,4.1-6.4a33,33,0,0,0,10.7,4.8,16.23,16.23,0,0,0,9-.3c2-.7,3.4-2,3.5-4.2a4.45,4.45,0,0,0-3-4.5c-3.3-1.5-7-1.9-10.5-2.7a26.8,26.8,0,0,1-8.3-3.1,12.16,12.16,0,0,1-.4-19.8C241.85.35,256.45,1.75,263.05,8.35Z"/><path d="M170.25,3.15h8.6s.2,19,0,27.7c-.2,6.8-3.1,12.2-9.3,15.5-7.8,4.1-18.9,2.4-24.5-3.8a17.67,17.67,0,0,1-4.5-11.9c-.1-8.8,0-27.5,0-27.5h8.6s0,19,.1,27.3c.1,5.4,3,8.9,8.1,10.2a10.14,10.14,0,0,0,12.7-8.6,35.79,35.79,0,0,0,.2-3.9Z"/><path d="M400.85,3.15h8.6s.2,19,0,27.7c-.2,6.8-3.1,12.2-9.3,15.5-7.8,4.1-18.9,2.4-24.5-3.8a17.67,17.67,0,0,1-4.5-11.9c-.1-8.8,0-27.5,0-27.5h8.6s0,19,.1,27.3c.1,5.4,3,8.9,8.1,10.2a10.14,10.14,0,0,0,12.7-8.6,35.79,35.79,0,0,0,.2-3.9Z"/><path d="M313.05,14.25c-2.5,1-5.1,2-7.5,3-7.7-8.3-16-9.3-22.4-2.8a15.4,15.4,0,0,0,.4,22.2c6.5,6,15.2,4.8,22-3.2l7.5,3c-1.7,7.1-12.5,12.9-22,11.8-12.1-1.3-20.6-10.5-20.9-22.5a22.82,22.82,0,0,1,19.5-23.4C300.75,1,310.25,7,313.05,14.25Z"/><polygon points="436.85 47.55 428.25 47.55 428.25 10.75 415.45 10.75 415.45 3.15 449.35 3.15 449.35 10.65 436.85 10.65 436.85 47.55"/><polygon points="120.55 47.55 111.95 47.55 111.95 10.75 99.15 10.75 99.15 3.15 133.05 3.15 133.05 10.65 120.55 10.65 120.55 47.55"/><path d="M190.45,59.15a2.18,2.18,0,0,1,2.4-2.3,2.49,2.49,0,0,1,2.3,2.7,2.41,2.41,0,0,1-2.6,2.4C191.15,61.85,190.35,60.75,190.45,59.15Z"/><path d="M116.15,62.05l-2.8,2.5c-.7-.4-1.3-.8-1.9-1.2a5.45,5.45,0,0,0-4.8-.5,3.34,3.34,0,0,0-1.7,2c-.1.6.7,1.6,1.3,2a18.45,18.45,0,0,0,3.5,1.5c1.2.5,2.5,1,3.7,1.6,4.5,2.5,4.6,8.2.2,10.9s-11.5,1.3-14.4-2.9c1-.8,1.9-1.7,3-2.5a21,21,0,0,0,1.7,1.4,7,7,0,0,0,6.8,1.1c2.2-.9,2.5-3.1.5-4.4a21.1,21.1,0,0,0-3.4-1.6,38.18,38.18,0,0,1-4.6-2.1,5.7,5.7,0,0,1,.3-10C107.35,57.85,113.25,58.75,116.15,62.05Z"/><path d="M168.75,66H173v15.9h-3.3c-.2-.6-.5-1.2-.8-1.9a10.63,10.63,0,0,0-1.1.9,6.33,6.33,0,0,1-6.7,1.1c-2.3-.9-3-3-3.1-5.2-.1-3.5,0-10.6,0-10.6h4.3V68s0,5.2.1,7.9c.1,1.7,1.1,2.4,2.8,2.2a4.07,4.07,0,0,0,3.5-3.9C168.75,71.35,168.75,68.65,168.75,66Z"/><path d="M214.55,81.85h-4.4V71.25a2.36,2.36,0,0,0-2.1-1.8,4.24,4.24,0,0,0-4.3,3.7v8.6h-4.3V65.85h3.2c.3.6.5,1.2.8,1.9.7-.5,1.2-1,1.8-1.4,3.9-2.6,8.5-.5,9,4.1.1.7.1,2.2.1,2.2Z"/><path d="M253.45,81.85V63.35h-6.8v-3.9h18v3.8h-6.8v18.5C256.25,81.85,254.85,81.85,253.45,81.85Z"/><path d="M135.15,68.85c-1,.7-1.9,1.3-2.8,1.9-3.2-2-5.7-2.1-7.4-.2a5.7,5.7,0,0,0,0,6.8c1.6,1.8,4.4,1.8,7.3-.3.9.6,1.8,1.3,2.8,1.9-1.6,2.8-5.5,4.1-9.3,3.2s-5.9-3.7-6.1-7.8A8.09,8.09,0,0,1,125,66C128.85,64.65,133.05,65.85,135.15,68.85Z"/><path d="M178.45,69.45h-2.3v-3.7h2.3V61h4.2v4.8h4.1v3.7h-3.9s-.1,5,0,7.4a2.18,2.18,0,0,0,2.6,2c.6,0,1.3-.2,2.2-.3v3.1c-4.3,2.1-8.3.1-9-4.5a37.07,37.07,0,0,1-.2-5.8Z"/><path d="M306,57.65h4.2v18.5c0,1.6.4,1.9.6,2.1a1.79,1.79,0,0,0,1.7.2l.6,3c-3.9,2.1-7.1.3-7.1-3.9Z"/><path d="M190.85,66H195v15.9h-4.1Z"/><path d="M146.05,65.45a8.17,8.17,0,0,1,8.6,8.3c0,5.1-3.4,8.6-8.5,8.6s-8.6-3.4-8.6-8.5S141,65.45,146.05,65.45Zm4.2,8.5c0-2.9-1.7-4.8-4.2-4.7S142,71.15,142,74s1.7,4.8,4.2,4.7S150.25,76.75,150.25,74Z"/><path d="M218.45,87c1-.8,2-1.5,3-2.3,1.9,1.5,4.9,2.9,7,1.6s1.8-4.8,1.6-6.3a7.37,7.37,0,0,1-8.7.5c-3-1.8-3.7-4.7-3.4-7.9.5-5.4,5.1-8.5,9.9-6.7a17.24,17.24,0,0,1,3,1.8l.6-1.8h3.1v18c0,5.4-4.8,7.5-10.3,6.5A7.75,7.75,0,0,1,218.45,87Zm12.1-13.3a4.07,4.07,0,0,0-4.1-4.4,4,4,0,0,0-4.2,4.3,4.1,4.1,0,0,0,4.2,4.4A4,4,0,0,0,230.55,73.65Z"/><path d="M274.25,65.45a8.5,8.5,0,1,1-8.7,8.4C265.65,68.75,269.05,65.45,274.25,65.45Zm4.1,8.5c0-2.8-1.7-4.8-4.3-4.7S270,71.15,270,74s1.7,4.8,4.2,4.7S278.35,76.65,278.35,74Z"/><path d="M294.15,65.45c5,0,8.5,3.4,8.5,8.3,0,5.2-3.5,8.7-8.6,8.6a8.08,8.08,0,0,1-8.5-8.5C285.45,68.85,289,65.45,294.15,65.45Zm-4.3,8.4c0,2.9,1.7,4.8,4.2,4.8s4.2-1.9,4.2-4.7-1.7-4.8-4.2-4.8S290,71.05,289.85,73.85Z"/></g></g></g></svg>